ffmpeg version 4.4.2-0ubuntu0.22.04.1 Copyright (c) 2000-2021 the FFmpeg developers
  built with gcc 11 (Ubuntu 11.2.0-19ubuntu1)
  configuration: --prefix=/usr --extra-version=0ubuntu0.22.04.1 --toolchain=hardened --libdir=/usr/lib/x86_64-linux-gnu --incdir=/usr/include/x86_64-linux-gnu --arch=amd64 --enable-gpl --disable-stripping --enable-gnutls --enable-ladspa --enable-libaom --enable-libass --enable-libbluray --enable-libbs2b --enable-libcaca --enable-libcdio --enable-libcodec2 --enable-libdav1d --enable-libflite --enable-libfontconfig --enable-libfreetype --enable-libfribidi --enable-libgme --enable-libgsm --enable-libjack --enable-libmp3lame --enable-libmysofa --enable-libopenjpeg --enable-libopenmpt --enable-libopus --enable-libpulse --enable-librabbitmq --enable-librubberband --enable-libshine --enable-libsnappy --enable-libsoxr --enable-libspeex --enable-libsrt --enable-libssh --enable-libtheora --enable-libtwolame --enable-libvidstab --enable-libvorbis --enable-libvpx --enable-libwebp --enable-libx265 --enable-libxml2 --enable-libxvid --enable-libzimg --enable-libzmq --enable-libzvbi --enable-lv2 --enable-omx --enable-openal --enable-opencl --enable-opengl --enable-sdl2 --enable-pocketsphinx --enable-librsvg --enable-libmfx --enable-libdc1394 --enable-libdrm --enable-libiec61883 --enable-chromaprint --enable-frei0r --enable-libx264 --enable-shared
  libavutil      56. 70.100 / 56. 70.100
  libavcodec     58.134.100 / 58.134.100
  libavformat    58. 76.100 / 58. 76.100
  libavdevice    58. 13.100 / 58. 13.100
  libavfilter     7.110.100 /  7.110.100
  libswscale      5.  9.100 /  5.  9.100
  libswresample   3.  9.100 /  3.  9.100
  libpostproc    55.  9.100 / 55.  9.100
Input #0, flv, from '/storage/32426326/20250615/32426326-20250615-141815-241.flv':
  Metadata:
    displayHeight   : 1440
    profile         : 
    cdn_ip          : 192.168.252.3
    Rawdata         : 
    encoder         : obs-output module (libobs version 31.0.2)
    fps             : 60
    displayWidth    : 2560
    level           : 
    Title           : 技术主播没有GG
    Artist          : 蓝音BuBuLine (32426326)
    Comment         : mikufans直播间 32426326 的直播录像
                    : 主播名: 蓝音BuBuLine
                    : 直播标题: 技术主播没有GG
                    : 直播分区: 单机游戏·主机游戏
                    : 录制时间: 2025-06-15T14:18:15.2522053+00:00
                    : 直播服务器:
                    : d1--ov-gotcha07.bilivideo.com [156.59.188.243]
                    : 
                    : 使用 mikufans录播姬 录制 https://rec.danmuji.org
                    : 录播姬版本: 2.11.0
    RecordedBy      : BililiveRecorder mikufans录播姬
    RecordedFrom    : d1--ov-gotcha07.bilivideo.com
    StreamServers   : d1--ov-gotcha07.bilivideo.com [156.59.188.243]
    RecorderVersion : 2.11.0+Branch.tags-v2.11.0.Sha.d32ebb97483b1ae77acfc6dbcfef17bd64913ccd
    StartTime       : Sun, 15 Jun 2025 14:18:15 +0000
    RoomId          : 32426326
    ShortId         : 0
    Name            : 蓝音BuBuLine
    StreamTitle     : 技术主播没有GG
    AreaNameParent  : 单机游戏
    AreaNameChild   : 主机游戏
  Duration: 06:18:07.08, start: 0.035000, bitrate: 8623 kb/s
  Stream #0:0: Video: h264 (High), yuv420p(tv, bt709, progressive), 2560x1440 [SAR 1:1 DAR 16:9], 10240 kb/s, 60 fps, 60 tbr, 1k tbn, 120 tbc
  Stream #0:1: Audio: aac (LC), 48000 Hz, stereo, fltp, 196 kb/s
Stream mapping:
  Stream #0:0 -> #0:0 (h264 (native) -> png (native))
Press [q] to stop, [?] for help
Output #0, image2, to '/storage/32426326/20250615/32426326-20250615-141815-241.all.thumb.png':
  Metadata:
    displayHeight   : 1440
    profile         : 
    cdn_ip          : 192.168.252.3
    Rawdata         : 
    AreaNameChild   : 主机游戏
    fps             : 60
    displayWidth    : 2560
    level           : 
    Title           : 技术主播没有GG
    Artist          : 蓝音BuBuLine (32426326)
    Comment         : mikufans直播间 32426326 的直播录像
                    : 主播名: 蓝音BuBuLine
                    : 直播标题: 技术主播没有GG
                    : 直播分区: 单机游戏·主机游戏
                    : 录制时间: 2025-06-15T14:18:15.2522053+00:00
                    : 直播服务器:
                    : d1--ov-gotcha07.bilivideo.com [156.59.188.243]
                    : 
                    : 使用 mikufans录播姬 录制 https://rec.danmuji.org
                    : 录播姬版本: 2.11.0
    RecordedBy      : BililiveRecorder mikufans录播姬
    RecordedFrom    : d1--ov-gotcha07.bilivideo.com
    StreamServers   : d1--ov-gotcha07.bilivideo.com [156.59.188.243]
    RecorderVersion : 2.11.0+Branch.tags-v2.11.0.Sha.d32ebb97483b1ae77acfc6dbcfef17bd64913ccd
    StartTime       : Sun, 15 Jun 2025 14:18:15 +0000
    RoomId          : 32426326
    ShortId         : 0
    Name            : 蓝音BuBuLine
    StreamTitle     : 技术主播没有GG
    AreaNameParent  : 单机游戏
    encoder         : Lavf58.76.100
  Stream #0:0: Video: png, rgb24(pc, gbr/bt709/bt709, progressive), 2560x1440 [SAR 1:1 DAR 16:9], q=2-31, 200 kb/s, 60 fps, 60 tbn
    Metadata:
      encoder         : Lavc58.134.100 png
frame=    1 fps=0.0 q=0.0 size=N/A time=00:00:00.00 bitrate=N/A speed=   0x    frame=    1 fps=0.0 q=-0.0 Lsize=N/A time=00:00:00.01 bitrate=N/A speed=0.0446x    
video:1489kB audio:0kB subtitle:0kB other streams:0kB global headers:0kB muxing overhead: unknown
ffmpeg version 4.4.2-0ubuntu0.22.04.1 Copyright (c) 2000-2021 the FFmpeg developers
  built with gcc 11 (Ubuntu 11.2.0-19ubuntu1)
  configuration: --prefix=/usr --extra-version=0ubuntu0.22.04.1 --toolchain=hardened --libdir=/usr/lib/x86_64-linux-gnu --incdir=/usr/include/x86_64-linux-gnu --arch=amd64 --enable-gpl --disable-stripping --enable-gnutls --enable-ladspa --enable-libaom --enable-libass --enable-libbluray --enable-libbs2b --enable-libcaca --enable-libcdio --enable-libcodec2 --enable-libdav1d --enable-libflite --enable-libfontconfig --enable-libfreetype --enable-libfribidi --enable-libgme --enable-libgsm --enable-libjack --enable-libmp3lame --enable-libmysofa --enable-libopenjpeg --enable-libopenmpt --enable-libopus --enable-libpulse --enable-librabbitmq --enable-librubberband --enable-libshine --enable-libsnappy --enable-libsoxr --enable-libspeex --enable-libsrt --enable-libssh --enable-libtheora --enable-libtwolame --enable-libvidstab --enable-libvorbis --enable-libvpx --enable-libwebp --enable-libx265 --enable-libxml2 --enable-libxvid --enable-libzimg --enable-libzmq --enable-libzvbi --enable-lv2 --enable-omx --enable-openal --enable-opencl --enable-opengl --enable-sdl2 --enable-pocketsphinx --enable-librsvg --enable-libmfx --enable-libdc1394 --enable-libdrm --enable-libiec61883 --enable-chromaprint --enable-frei0r --enable-libx264 --enable-shared
  libavutil      56. 70.100 / 56. 70.100
  libavcodec     58.134.100 / 58.134.100
  libavformat    58. 76.100 / 58. 76.100
  libavdevice    58. 13.100 / 58. 13.100
  libavfilter     7.110.100 /  7.110.100
  libswscale      5.  9.100 /  5.  9.100
  libswresample   3.  9.100 /  3.  9.100
  libpostproc    55.  9.100 / 55.  9.100
[flv @ 0x5626207bdfc0] Auto-inserting h264_mp4toannexb bitstream filter
Input #0, concat, from '/storage/32426326/20250615/32426326-20250615-141815-241.all.concat.txt':
  Duration: N/A, start: 0.000000, bitrate: 10436 kb/s
  Stream #0:0: Video: h264 (High), yuv420p(tv, bt709, progressive), 2560x1440 [SAR 1:1 DAR 16:9], 10240 kb/s, 60 fps, 60 tbr, 1k tbn, 120 tbc
  Stream #0:1: Audio: aac (LC), 48000 Hz, stereo, fltp, 196 kb/s
Output #0, flv, to '/storage/32426326/20250615/32426326-20250615-141815-241.all.flv':
  Metadata:
    encoder         : Lavf58.76.100
  Stream #0:0: Video: h264 (High) ([7][0][0][0] / 0x0007), yuv420p(tv, bt709, progressive), 2560x1440 [SAR 1:1 DAR 16:9], q=2-31, 10240 kb/s, 60 fps, 60 tbr, 1k tbn, 1k tbc
  Stream #0:1: Audio: aac (LC) ([10][0][0][0] / 0x000A), 48000 Hz, stereo, fltp, 196 kb/s
Stream mapping:
  Stream #0:0 -> #0:0 (copy)
  Stream #0:1 -> #0:1 (copy)
Press [q] to stop, [?] for help
frame=    1 fps=0.0 q=-1.0 size=       0kB time=00:00:00.00 bitrate=N/A speed=N/A    frame= 2095 fps=0.0 q=-1.0 size=   37632kB time=00:00:35.07 bitrate=8789.0kbits/s speed=70.1x    frame= 3840 fps=3838 q=-1.0 size=   73984kB time=00:01:04.14 bitrate=9448.3kbits/s speed=64.1x    frame= 5645 fps=3762 q=-1.0 size=  110848kB time=00:01:34.23 bitrate=9636.4kbits/s speed=62.8x    frame= 7868 fps=3931 q=-1.0 size=  151040kB time=00:02:11.28 bitrate=9425.0kbits/s speed=65.6x    frame=10157 fps=4059 q=-1.0 size=  195328kB time=00:02:49.43 bitrate=9444.2kbits/s speed=67.7x    frame=12027 fps=4006 q=-1.0 size=  233984kB time=00:03:20.60 bitrate=9555.3kbits/s speed=66.8x    frame=13943 fps=3981 q=-1.0 size=  273920kB time=00:03:52.53 bitrate=9649.9kbits/s speed=66.4x    frame=15991 fps=3995 q=-1.0 size=  316416kB time=00:04:26.67 bitrate=9720.2kbits/s speed=66.6x    frame=18084 fps=4016 q=-1.0 size=  360192kB time=00:05:01.54 bitrate=9785.2kbits/s speed=  67x    frame=20151 fps=4027 q=-1.0 size=  402688kB time=00:05:35.99 bitrate=9818.0kbits/s speed=67.2x    frame=22177 fps=4029 q=-1.0 size=  444928kB time=00:06:09.77 bitrate=9857.0kbits/s speed=67.2x    frame=24180 fps=4028 q=-1.0 size=  486400kB time=00:06:43.16 bitrate=9883.4kbits/s speed=67.2x    frame=26186 fps=4026 q=-1.0 size=  528128kB time=00:07:16.58 bitrate=9909.8kbits/s speed=67.1x    frame=28203 fps=4027 q=-1.0 size=  569856kB time=00:07:50.21 bitrate=9928.0kbits/s speed=67.1x    frame=30339 fps=4043 q=-1.0 size=  614400kB time=00:08:25.79 bitrate=9951.0kbits/s speed=67.4x    frame=32356 fps=4042 q=-1.0 size=  656384kB time=00:08:59.41 bitrate=9968.4kbits/s speed=67.4x    frame=34208 fps=4022 q=-1.0 size=  694784kB time=00:09:30.28 bitrate=9980.4kbits/s speed=67.1x    frame=36516 fps=4055 q=-1.0 size=  738816kB time=00:10:08.74 bitrate=9942.4kbits/s speed=67.6x    frame=38573 fps=4058 q=-1.0 size=  780288kB time=00:10:43.03 bitrate=9940.6kbits/s speed=67.6x    frame=40710 fps=4069 q=-1.0 size=  816896kB time=00:11:18.64 bitrate=9860.8kbits/s speed=67.8x    frame=42607 fps=4056 q=-1.0 size=  856320kB time=00:11:50.26 bitrate=9876.6kbits/s speed=67.6x    frame=44463 fps=4040 q=-1.0 size=  894976kB time=00:12:21.19 bitrate=9891.6kbits/s speed=67.3x    frame=46359 fps=4029 q=-1.0 size=  934144kB time=00:12:52.79 bitrate=9902.4kbits/s speed=67.2x    frame=48244 fps=4018 q=-1.0 size=  973312kB time=00:13:24.21 bitrate=9914.5kbits/s speed=  67x    frame=50128 fps=4008 q=-1.0 size= 1012736kB time=00:13:55.61 bitrate=9928.4kbits/s speed=66.8x    frame=52186 fps=4012 q=-1.0 size= 1055232kB time=00:14:29.91 bitrate=9937.2kbits/s speed=66.9x    frame=54262 fps=4017 q=-1.0 size= 1098240kB time=00:15:04.51 bitrate=9946.5kbits/s speed=  67x    frame=56091 fps=4004 q=-1.0 size= 1136384kB time=00:15:34.99 bitrate=9956.5kbits/s speed=66.7x    frame=58478 fps=4031 q=-1.0 size= 1181696kB time=00:16:14.78 bitrate=9930.8kbits/s speed=67.2x    frame=60854 fps=4055 q=-1.0 size= 1224192kB time=00:16:54.38 bitrate=9886.4kbits/s speed=67.6x    frame=62670 fps=4041 q=-1.0 size= 1261824kB time=00:17:24.65 bitrate=9895.0kbits/s speed=67.4x    frame=64605 fps=4035 q=-1.0 size= 1302016kB time=00:17:56.89 bitrate=9904.5kbits/s speed=67.3x    frame=66456 fps=4025 q=-1.0 size= 1340672kB time=00:18:27.74 bitrate=9914.5kbits/s speed=67.1x    frame=68357 fps=4018 q=-1.0 size= 1380096kB time=00:18:59.43 bitrate=9922.3kbits/s speed=  67x    frame=70349 fps=4017 q=-1.0 size= 1421312kB time=00:19:32.63 bitrate=9929.3kbits/s speed=  67x    frame=72088 fps=4002 q=-1.0 size= 1457408kB time=00:20:01.62 bitrate=9935.8kbits/s speed=66.7x    frame=74080 fps=4002 q=-1.0 size= 1498880kB time=00:20:34.81 bitrate=9943.9kbits/s speed=66.7x    frame=76104 fps=4003 q=-1.0 size= 1540864kB time=00:21:08.54 bitrate=9950.6kbits/s speed=66.7x    frame=77852 fps=3990 q=-1.0 size= 1577216kB time=00:21:37.68 bitrate=9956.7kbits/s speed=66.5x    frame=79835 fps=3989 q=-1.0 size= 1618432kB time=00:22:10.73 bitrate=9963.1kbits/s speed=66.5x    frame=81738 fps=3984 q=-1.0 size= 1658112kB time=00:22:42.44 bitrate=9969.7kbits/s speed=66.4x    frame=83663 fps=3981 q=-1.0 size= 1698048kB time=00:23:14.54 bitrate=9974.9kbits/s speed=66.4x    frame=85664 fps=3982 q=-1.0 size= 1739776kB time=00:23:47.88 bitrate=9981.4kbits/s speed=66.4x    frame=87571 fps=3978 q=-1.0 size= 1779200kB time=00:24:19.67 bitrate=9985.3kbits/s speed=66.3x    frame=89526 fps=3976 q=-1.0 size= 1819648kB time=00:24:52.24 bitrate=9989.3kbits/s speed=66.3x    frame=91415 fps=3972 q=-1.0 size= 1859072kB time=00:25:23.73 bitrate=9994.9kbits/s speed=66.2x    frame=93452 fps=3974 q=-1.0 size= 1896960kB time=00:25:57.68 bitrate=9976.3kbits/s speed=66.2x    frame=95702 fps=3985 q=-1.0 size= 1939712kB time=00:26:35.18 bitrate=9961.3kbits/s speed=66.4x    frame=98168 fps=4004 q=-1.0 size= 1982976kB time=00:27:16.28 bitrate=9927.7kbits/s speed=66.7x    frame=100035 fps=3999 q=-1.0 size= 2021632kB time=00:27:47.39 bitrate=9932.4kbits/s speed=66.6x    frame=102097 fps=4001 q=-1.0 size= 2064640kB time=00:28:21.76 bitrate=9938.8kbits/s speed=66.7x    frame=104007 fps=3997 q=-1.0 size= 2104320kB time=00:28:53.59 bitrate=9943.8kbits/s speed=66.6x    frame=105983 fps=3996 q=-1.0 size= 2145280kB time=00:29:26.53 bitrate=9948.4kbits/s speed=66.6x    frame=108022 fps=3998 q=-1.0 size= 2187520kB time=00:30:00.51 bitrate=9952.8kbits/s speed=66.6x    frame=110205 fps=4005 q=-1.0 size= 2227456kB time=00:30:36.89 bitrate=9933.8kbits/s speed=66.7x    frame=112284 fps=4007 q=-1.0 size= 2270720kB time=00:31:11.55 bitrate=9939.2kbits/s speed=66.8x    frame=114815 fps=4026 q=-1.0 size= 2314752kB time=00:31:53.73 bitrate=9908.6kbits/s speed=67.1x    frame=116693 fps=4021 q=-1.0 size= 2353920kB time=00:32:25.03 bitrate=9914.1kbits/s speed=  67x    frame=118684 fps=4020 q=-1.0 size= 2395136kB time=00:32:58.22 bitrate=9918.5kbits/s speed=  67x    frame=120676 fps=4020 q=-1.0 size= 2436608kB time=00:33:31.41 bitrate=9923.7kbits/s speed=  67x    frame=122752 fps=4022 q=-1.0 size= 2479872kB time=00:34:06.02 bitrate=9929.1kbits/s speed=  67x    frame=124842 fps=4025 q=-1.0 size= 2523136kB time=00:34:40.85 bitrate=9933.2kbits/s speed=67.1x    frame=126768 fps=4022 q=-1.0 size= 2563328kB time=00:35:12.94 bitrate=9938.1kbits/s speed=  67x    frame=128741 fps=4021 q=-1.0 size= 2604032kB time=00:35:45.83 bitrate=9941.2kbits/s speed=  67x    frame=130772 fps=4021 q=-1.0 size= 2646272kB time=00:36:19.69 bitrate=9945.6kbits/s speed=  67x    frame=132576 fps=4015 q=-1.0 size= 2683904kB time=00:36:49.74 bitrate=9949.8kbits/s speed=66.9x    frame=134641 fps=4016 q=-1.0 size= 2726656kB time=00:37:24.16 bitrate=9953.3kbits/s speed=66.9x    frame=136658 fps=4017 q=-1.0 size= 2768896kB time=00:37:57.78 bitrate=9958.3kbits/s speed=66.9x    frame=138445 fps=4010 q=-1.0 size= 2806016kB time=00:38:27.56 bitrate=9961.5kbits/s speed=66.8x    frame=140462 fps=4011 q=-1.0 size= 2847744kB time=00:39:01.18 bitrate=9964.5kbits/s speed=66.8x    frame=142367 fps=4008 q=-1.0 size= 2887424kB time=00:39:32.93 bitrate=9968.2kbits/s speed=66.8x    frame=143835 fps=3993 q=-1.0 size= 2917888kB time=00:39:57.40 bitrate=9970.5kbits/s speed=66.6x    frame=146171 fps=4002 q=-1.0 size= 2961408kB time=00:40:36.33 bitrate=9957.5kbits/s speed=66.7x    frame=148713 fps=4017 q=-1.0 size= 3003136kB time=00:41:18.69 bitrate=9925.3kbits/s speed=66.9x    frame=150723 fps=4017 q=-1.0 size= 3044608kB time=00:41:52.19 bitrate=9928.1kbits/s speed=66.9x    frame=152643 fps=4014 q=-1.0 size= 3084544kB time=00:42:24.19 bitrate=9931.9kbits/s speed=66.9x    frame=154550 fps=4012 q=-1.0 size= 3124224kB time=00:42:55.98 bitrate=9935.5kbits/s speed=66.9x    frame=156522 fps=4011 q=-1.0 size= 3165184kB time=00:43:28.84 bitrate=9938.9kbits/s speed=66.9x    frame=158501 fps=4010 q=-1.0 size= 3206400kB time=00:44:01.83 bitrate=9942.7kbits/s speed=66.8x    frame=160470 fps=4009 q=-1.0 size= 3247104kB time=00:44:34.64 bitrate=9945.3kbits/s speed=66.8x    frame=162327 fps=4006 q=-1.0 size= 3285760kB time=00:45:05.59 bitrate=9948.6kbits/s speed=66.8x    frame=164107 fps=4000 q=-1.0 size= 3322880kB time=00:45:35.26 bitrate=9951.9kbits/s speed=66.7x    frame=166166 fps=4002 q=-1.0 size= 3365376kB time=00:46:09.58 bitrate=9954.3kbits/s speed=66.7x    frame=168182 fps=4002 q=-1.0 size= 3407104kB time=00:46:43.18 bitrate=9956.9kbits/s speed=66.7x    frame=170070 fps=3999 q=-1.0 size= 3446528kB time=00:47:14.64 bitrate=9960.3kbits/s speed=66.7x    frame=171973 fps=3997 q=-1.0 size= 3485952kB time=00:47:46.37 bitrate=9962.7kbits/s speed=66.6x    frame=173860 fps=3994 q=-1.0 size= 3525376kB time=00:48:17.81 bitrate=9966.1kbits/s speed=66.6x    frame=175607 fps=3989 q=-1.0 size= 3561728kB time=00:48:46.93 bitrate=9968.7kbits/s speed=66.5x    frame=177549 fps=3988 q=-1.0 size= 3601664kB time=00:49:19.29 bitrate=9970.2kbits/s speed=66.5x    frame=179349 fps=3983 q=-1.0 size= 3639296kB time=00:49:49.29 bitrate=9973.3kbits/s speed=66.4x    frame=181714 fps=3991 q=-1.0 size= 3682304kB time=00:50:28.71 bitrate=9959.8kbits/s speed=66.5x    frame=184184 fps=4002 q=-1.0 size= 3725312kB time=00:51:09.89 bitrate=9941.0kbits/s speed=66.7x    frame=186020 fps=3998 q=-1.0 size= 3763456kB time=00:51:40.48 bitrate=9943.7kbits/s speed=66.6x    frame=187967 fps=3997 q=-1.0 size= 3804160kB time=00:52:12.93 bitrate=9947.1kbits/s speed=66.6x    frame=189998 fps=3998 q=-1.0 size= 3846144kB time=00:52:46.78 bitrate=9949.4kbits/s speed=66.6x    frame=191792 fps=3993 q=-1.0 size= 3883520kB time=00:53:16.68 bitrate=9952.1kbits/s speed=66.6x    frame=193705 fps=3991 q=-1.0 size= 3923200kB time=00:53:48.56 bitrate=9954.5kbits/s speed=66.5x    frame=195584 fps=3989 q=-1.0 size= 3962624kB time=00:54:19.88 bitrate=9958.0kbits/s speed=66.5x    frame=197399 fps=3985 q=-1.0 size= 4000000kB time=00:54:50.13 bitrate=9959.5kbits/s speed=66.4x    frame=199479 fps=3987 q=-1.0 size= 4043264kB time=00:55:24.79 bitrate=9962.2kbits/s speed=66.5x    frame=201429 fps=3986 q=-1.0 size= 4083712kB time=00:55:57.29 bitrate=9964.5kbits/s speed=66.4x    frame=203429 fps=3986 q=-1.0 size= 4125184kB time=00:56:30.63 bitrate=9966.7kbits/s speed=66.4x    frame=205517 fps=3988 q=-1.0 size= 4168704kB time=00:57:05.43 bitrate=9969.6kbits/s speed=66.5x    frame=207353 fps=3985 q=-1.0 size= 4206848kB time=00:57:36.03 bitrate=9971.7kbits/s speed=66.4x    frame=209357 fps=3985 q=-1.0 size= 4248576kB time=00:58:09.43 bitrate=9974.2kbits/s speed=66.4x    frame=211338 fps=3985 q=-1.0 size= 4289536kB time=00:58:42.45 bitrate=9976.0kbits/s speed=66.4x    frame=213099 fps=3981 q=-1.0 size= 4326400kB time=00:59:11.79 bitrate=9978.6kbits/s speed=66.3x    frame=215363 fps=3986 q=-1.0 size= 4368896kB time=00:59:49.53 bitrate=9970.7kbits/s speed=66.4x    frame=217386 fps=3986 q=-1.0 size= 4410880kB time=01:00:23.25 bitrate=9972.8kbits/s speed=66.4x    frame=219493 fps=3988 q=-1.0 size= 4448256kB time=01:00:58.37 bitrate=9960.7kbits/s speed=66.5x    frame=221478 fps=3988 q=-1.0 size= 4489728kB time=01:01:31.44 bitrate=9963.5kbits/s speed=66.5x    frame=223348 fps=3986 q=-1.0 size= 4528128kB time=01:02:02.62 bitrate=9964.6kbits/s speed=66.4x    frame=225247 fps=3984 q=-1.0 size= 4567552kB time=01:02:34.26 bitrate=9966.6kbits/s speed=66.4x    frame=227189 fps=3983 q=-1.0 size= 4608256kB time=01:03:06.63 bitrate=9969.5kbits/s speed=66.4x    frame=229033 fps=3981 q=-1.0 size= 4646400kB time=01:03:37.36 bitrate=9971.1kbits/s speed=66.3x    frame=231005 fps=3980 q=-1.0 size= 4687360kB time=01:04:10.23 bitrate=9973.1kbits/s speed=66.3x    frame=233060 fps=3981 q=-1.0 size= 4730112kB time=01:04:44.48 bitrate=9975.3kbits/s speed=66.4x    frame=234856 fps=3978 q=-1.0 size= 4767232kB time=01:05:14.41 bitrate=9976.8kbits/s speed=66.3x    frame=236813 fps=3977 q=-1.0 size= 4808192kB time=01:05:47.03 bitrate=9979.3kbits/s speed=66.3x    frame=238729 fps=3976 q=-1.0 size= 4847872kB time=01:06:18.96 bitrate=9980.9kbits/s speed=66.3x    frame=240605 fps=3974 q=-1.0 size= 4887040kB time=01:06:50.23 bitrate=9983.1kbits/s speed=66.2x    frame=242637 fps=3975 q=-1.0 size= 4929024kB time=01:07:24.10 bitrate=9984.6kbits/s speed=66.3x    frame=244465 fps=3972 q=-1.0 size= 4966912kB time=01:07:54.56 bitrate=9986.1kbits/s speed=66.2x    frame=246404 fps=3972 q=-1.0 size= 5007360kB time=01:08:26.88 bitrate=9988.2kbits/s speed=66.2x    frame=248681 fps=3976 q=-1.0 size= 5050368kB time=01:09:04.83 bitrate=9981.7kbits/s speed=66.3x    frame=250801 fps=3978 q=-1.0 size= 5088768kB time=01:09:40.16 bitrate=9972.6kbits/s speed=66.3x    frame=252888 fps=3980 q=-1.0 size= 5130496kB time=01:10:14.95 bitrate=9971.4kbits/s speed=66.3x    frame=254848 fps=3979 q=-1.0 size= 5171456kB time=01:10:47.62 bitrate=9973.7kbits/s speed=66.3x    frame=256639 fps=3976 q=-1.0 size= 5208320kB time=01:11:17.46 bitrate=9974.7kbits/s speed=66.3x    frame=258935 fps=3981 q=-1.0 size= 5252096kB time=01:11:55.73 bitrate=9969.4kbits/s speed=66.4x    frame=261052 fps=3983 q=-1.0 size= 5292544kB time=01:12:31.02 bitrate=9964.7kbits/s speed=66.4x    frame=263228 fps=3986 q=-1.0 size= 5332224kB time=01:13:07.28 bitrate=9956.4kbits/s speed=66.4x    frame=265274 fps=3987 q=-1.0 size= 5374464kB time=01:13:41.38 bitrate=9957.9kbits/s speed=66.4x    frame=267057 fps=3983 q=-1.0 size= 5411584kB time=01:14:11.09 bitrate=9959.7kbits/s speed=66.4x    frame=269067 fps=3984 q=-1.0 size= 5453568kB time=01:14:44.59 bitrate=9962.0kbits/s speed=66.4x    frame=271057 fps=3984 q=-1.0 size= 5494528kB time=01:15:17.76 bitrate=9963.2kbits/s speed=66.4x    frame=272895 fps=3981 q=-1.0 size= 5532672kB time=01:15:48.39 bitrate=9964.8kbits/s speed=66.4x    frame=274939 fps=3982 q=-1.0 size= 5575424kB time=01:16:22.46 bitrate=9967.1kbits/s speed=66.4x    frame=276791 fps=3980 q=-1.0 size= 5613824kB time=01:16:53.33 bitrate=9968.6kbits/s speed=66.3x    frame=278467 fps=3976 q=-1.0 size= 5648384kB time=01:17:21.26 bitrate=9969.6kbits/s speed=66.3x    frame=280290 fps=3973 q=-1.0 size= 5686528kB time=01:17:51.64 bitrate=9971.7kbits/s speed=66.2x    frame=282063 fps=3970 q=-1.0 size= 5723392kB time=01:18:21.19 bitrate=9973.2kbits/s speed=66.2x    frame=283879 fps=3968 q=-1.0 size= 5761024kB time=01:18:51.46 bitrate=9974.6kbits/s speed=66.1x    frame=285618 fps=3964 q=-1.0 size= 5797120kB time=01:19:20.44 bitrate=9976.0kbits/s speed=66.1x    frame=287310 fps=3960 q=-1.0 size= 5832192kB time=01:19:48.65 bitrate=9977.2kbits/s speed=  66x    frame=289222 fps=3959 q=-1.0 size= 5872128kB time=01:20:20.52 bitrate=9979.1kbits/s speed=  66x    frame=291238 fps=3960 q=-1.0 size= 5914112kB time=01:20:54.11 bitrate=9980.9kbits/s speed=  66x    frame=293071 fps=3958 q=-1.0 size= 5952256kB time=01:21:24.67 bitrate=9982.4kbits/s speed=  66x    frame=295367 fps=3962 q=-1.0 size= 5993984kB time=01:22:02.93 bitrate=9974.3kbits/s speed=  66x    frame=297705 fps=3967 q=-1.0 size= 6033664kB time=01:22:41.89 bitrate=9961.5kbits/s speed=66.1x    frame=299595 fps=3966 q=-1.0 size= 6073088kB time=01:23:13.39 bitrate=9963.3kbits/s speed=66.1x    frame=301571 fps=3965 q=-1.0 size= 6114048kB time=01:23:46.33 bitrate=9964.8kbits/s speed=66.1x    frame=303380 fps=3963 q=-1.0 size= 6151680kB time=01:24:16.49 bitrate=9966.3kbits/s speed=66.1x    frame=305347 fps=3963 q=-1.0 size= 6192384kB time=01:24:49.26 bitrate=9967.7kbits/s speed=66.1x    frame=307420 fps=3964 q=-1.0 size= 6235904kB time=01:25:23.81 bitrate=9970.0kbits/s speed=66.1x    frame=309193 fps=3961 q=-1.0 size= 6272512kB time=01:25:53.36 bitrate=9971.0kbits/s speed=  66x    frame=311215 fps=3962 q=-1.0 size= 6314496kB time=01:26:27.07 bitrate=9972.5kbits/s speed=  66x    frame=313252 fps=3963 q=-1.0 size= 6356736kB time=01:27:01.01 bitrate=9974.0kbits/s speed=  66x    frame=315325 fps=3964 q=-1.0 size= 6393344kB time=01:27:35.57 bitrate=9965.5kbits/s speed=66.1x    frame=317432 fps=3965 q=-1.0 size= 6436864kB time=01:28:10.68 bitrate=9966.7kbits/s speed=66.1x    frame=319579 fps=3967 q=-1.0 size= 6476288kB time=01:28:46.46 bitrate=9960.4kbits/s speed=66.1x    frame=321562 fps=3967 q=-1.0 size= 6517248kB time=01:29:19.51 bitrate=9961.6kbits/s speed=66.1x    frame=323620 fps=3968 q=-1.0 size= 6560000kB time=01:29:53.81 bitrate=9963.2kbits/s speed=66.1x    frame=325435 fps=3966 q=-1.0 size= 6597888kB time=01:30:24.06 bitrate=9964.8kbits/s speed=66.1x    frame=327578 fps=3968 q=-1.0 size= 6642432kB time=01:30:59.78 bitrate=9966.5kbits/s speed=66.1x    frame=329621 fps=3969 q=-1.0 size= 6684928kB time=01:31:33.83 bitrate=9968.1kbits/s speed=66.1x    frame=331507 fps=3968 q=-1.0 size= 6724096kB time=01:32:05.27 bitrate=9969.4kbits/s speed=66.1x    frame=333592 fps=3969 q=-1.0 size= 6767360kB time=01:32:40.02 bitrate=9970.9kbits/s speed=66.2x    frame=335576 fps=3969 q=-1.0 size= 6808576kB time=01:33:13.08 bitrate=9972.3kbits/s speed=66.1x    frame=337489 fps=3968 q=-1.0 size= 6848256kB time=01:33:44.96 bitrate=9973.6kbits/s speed=66.1x    frame=339610 fps=3970 q=-1.0 size= 6892544kB time=01:34:20.31 bitrate=9975.4kbits/s speed=66.2x    frame=341526 fps=3969 q=-1.0 size= 6932224kB time=01:34:52.24 bitrate=9976.5kbits/s speed=66.1x    frame=343506 fps=3969 q=-1.0 size= 6973440kB time=01:35:25.25 bitrate=9978.0kbits/s speed=66.1x    frame=345380 fps=3968 q=-1.0 size= 7011840kB time=01:35:56.48 bitrate=9978.5kbits/s speed=66.1x    frame=347694 fps=3971 q=-1.0 size= 7056384kB time=01:36:35.05 bitrate=9975.0kbits/s speed=66.2x    frame=349962 fps=3974 q=-1.0 size= 7102720kB time=01:37:12.85 bitrate=9975.5kbits/s speed=66.2x    frame=352405 fps=3980 q=-1.0 size= 7144192kB time=01:37:53.56 bitrate=9964.2kbits/s speed=66.3x    frame=354473 fps=3980 q=-1.0 size= 7187456kB time=01:38:28.03 bitrate=9966.0kbits/s speed=66.3x    frame=356483 fps=3981 q=-1.0 size= 7228928kB time=01:39:01.53 bitrate=9967.0kbits/s speed=66.3x    frame=358414 fps=3980 q=-1.0 size= 7269120kB time=01:39:33.71 bitrate=9968.4kbits/s speed=66.3x    frame=360536 fps=3981 q=-1.0 size= 7313152kB time=01:40:09.08 bitrate=9969.8kbits/s speed=66.4x    frame=362509 fps=3981 q=-1.0 size= 7354112kB time=01:40:41.96 bitrate=9971.1kbits/s speed=66.4x    frame=364627 fps=3983 q=-1.0 size= 7398144kB time=01:41:17.27 bitrate=9972.5kbits/s speed=66.4x    frame=366711 fps=3984 q=-1.0 size= 7441408kB time=01:41:52.00 bitrate=9973.8kbits/s speed=66.4x    frame=368593 fps=3982 q=-1.0 size= 7480576kB time=01:42:23.36 bitrate=9975.1kbits/s speed=66.4x    frame=370652 fps=3983 q=-1.0 size= 7523328kB time=01:42:57.68 bitrate=9976.4kbits/s speed=66.4x    frame=372676 fps=3983 q=-1.0 size= 7565312kB time=01:43:31.41 bitrate=9977.6kbits/s speed=66.4x    frame=376073 fps=3998 q=-1.0 size= 7607552kB time=01:44:28.03 bitrate=9942.7kbits/s speed=66.6x    frame=380329 fps=4022 q=-1.0 size= 7650304kB time=01:45:38.96 bitrate=9886.7kbits/s speed=  67x    frame=382478 fps=4024 q=-1.0 size= 7691008kB time=01:46:14.78 bitrate=9883.4kbits/s speed=67.1x    frame=384611 fps=4025 q=-1.0 size= 7732480kB time=01:46:50.33 bitrate=9881.6kbits/s speed=67.1x    frame=387972 fps=4039 q=-1.0 size= 7776000kB time=01:47:46.34 bitrate=9851.2kbits/s speed=67.3x    frame=389888 fps=4038 q=-1.0 size= 7815680kB time=01:48:18.28 bitrate=9852.8kbits/s speed=67.3x    frame=391957 fps=4038 q=-1.0 size= 7858688kB time=01:48:52.76 bitrate=9854.7kbits/s speed=67.3x    frame=394184 fps=4040 q=-1.0 size= 7901440kB time=01:49:29.88 bitrate=9852.3kbits/s speed=67.3x    frame=396920 fps=4048 q=-1.0 size= 7939072kB time=01:50:15.48 bitrate=9831.0kbits/s speed=67.5x    frame=399750 fps=4056 q=-1.0 size= 7983360kB time=01:51:02.66 bitrate=9815.9kbits/s speed=67.6x    frame=401906 fps=4057 q=-1.0 size= 8025344kB time=01:51:38.58 bitrate=9814.6kbits/s speed=67.6x    frame=404071 fps=4058 q=-1.0 size= 8067840kB time=01:52:14.66 bitrate=9813.7kbits/s speed=67.6x    frame=406157 fps=4059 q=-1.0 size= 8110080kB time=01:52:49.43 bitrate=9814.4kbits/s speed=67.7x    frame=408136 fps=4058 q=-1.0 size= 8149760kB time=01:53:22.41 bitrate=9814.6kbits/s speed=67.6x    frame=410423 fps=4061 q=-1.0 size= 8189696kB time=01:54:00.53 bitrate=9807.7kbits/s speed=67.7x    frame=412752 fps=4064 q=-1.0 size= 8232704kB time=01:54:39.34 bitrate=9803.6kbits/s speed=67.7x    frame=415635 fps=4072 q=-1.0 size= 8273152kB time=01:55:27.39 bitrate=9783.4kbits/s speed=67.9x    frame=418761 fps=4083 q=-1.0 size= 8313088kB time=01:56:19.49 bitrate=9757.3kbits/s speed=  68x    frame=424315 fps=4117 q=-1.0 size= 8355328kB time=01:57:52.06 bitrate=9678.5kbits/s speed=68.6x    frame=426423 fps=4117 q=-1.0 size= 8393472kB time=01:58:27.19 bitrate=9674.6kbits/s speed=68.6x    frame=428864 fps=4121 q=-1.0 size= 8435712kB time=01:59:07.88 bitrate=9667.9kbits/s speed=68.7x    frame=430753 fps=4119 q=-1.0 size= 8472832kB time=01:59:39.37 bitrate=9667.9kbits/s speed=68.7x    frame=433020 fps=4121 q=-1.0 size= 8517120kB time=02:00:17.15 bitrate=9667.6kbits/s speed=68.7x    frame=435220 fps=4123 q=-1.0 size= 8558080kB time=02:00:53.81 bitrate=9665.0kbits/s speed=68.7x    frame=437636 fps=4126 q=-1.0 size= 8600576kB time=02:01:34.08 bitrate=9659.3kbits/s speed=68.8x    frame=440476 fps=4133 q=-1.0 size= 8644352kB time=02:02:21.42 bitrate=9645.9kbits/s speed=68.9x    frame=443706 fps=4144 q=-1.0 size= 8683008kB time=02:03:15.24 bitrate=9618.5kbits/s speed=69.1x    frame=445980 fps=4146 q=-1.0 size= 8728064kB time=02:03:53.14 bitrate=9619.1kbits/s speed=69.1x    frame=449210 fps=4157 q=-1.0 size= 8774912kB time=02:04:46.98 bitrate=9601.2kbits/s speed=69.3x    frame=451464 fps=4158 q=-1.0 size= 8815360kB time=02:05:24.54 bitrate=9597.3kbits/s speed=69.3x    frame=453847 fps=4161 q=-1.0 size= 8859136kB time=02:06:04.27 bitrate=9594.3kbits/s speed=69.4x    frame=455839 fps=4160 q=-1.0 size= 8899840kB time=02:06:37.46 bitrate=9596.3kbits/s speed=69.3x    frame=458157 fps=4162 q=-1.0 size= 8942592kB time=02:07:16.10 bitrate=9593.6kbits/s speed=69.4x    frame=461331 fps=4172 q=-1.0 size= 8986368kB time=02:08:08.99 bitrate=9574.2kbits/s speed=69.5x    frame=463412 fps=4172 q=-1.0 size= 9026816kB time=02:08:43.69 bitrate=9574.1kbits/s speed=69.5x    frame=465480 fps=4172 q=-1.0 size= 9067520kB time=02:09:18.14 bitrate=9574.6kbits/s speed=69.5x    frame=467722 fps=4173 q=-1.0 size= 9109760kB time=02:09:55.52 bitrate=9573.1kbits/s speed=69.6x    frame=469718 fps=4173 q=-1.0 size= 9149184kB time=02:10:28.78 bitrate=9573.7kbits/s speed=69.5x    frame=471845 fps=4173 q=-1.0 size= 9192448kB time=02:11:04.23 bitrate=9575.6kbits/s speed=69.6x    frame=473909 fps=4173 q=-1.0 size= 9232384kB time=02:11:38.63 bitrate=9575.3kbits/s speed=69.5x    frame=475879 fps=4172 q=-1.0 size= 9271296kB time=02:12:11.46 bitrate=9575.8kbits/s speed=69.5x    frame=477865 fps=4171 q=-1.0 size= 9309952kB time=02:12:44.56 bitrate=9575.8kbits/s speed=69.5x    frame=479745 fps=4169 q=-1.0 size= 9347072kB time=02:13:15.90 bitrate=9576.3kbits/s speed=69.5x    frame=481800 fps=4169 q=-1.0 size= 9387520kB time=02:13:50.14 bitrate=9576.7kbits/s speed=69.5x    frame=483963 fps=4169 q=-1.0 size= 9430528kB time=02:14:26.19 bitrate=9577.6kbits/s speed=69.5x    frame=485924 fps=4168 q=-1.0 size= 9470208kB time=02:14:58.88 bitrate=9579.1kbits/s speed=69.5x    frame=488145 fps=4170 q=-1.0 size= 9512960kB time=02:15:35.89 bitrate=9578.6kbits/s speed=69.5x    frame=490239 fps=4170 q=-1.0 size= 9554688kB time=02:16:10.79 bitrate=9579.5kbits/s speed=69.5x    frame=492151 fps=4168 q=-1.0 size= 9592320kB time=02:16:42.67 bitrate=9579.8kbits/s speed=69.5x    frame=494354 fps=4169 q=-1.0 size= 9634048kB time=02:17:19.38 bitrate=9578.6kbits/s speed=69.5x    frame=496393 fps=4169 q=-1.0 size= 9674496kB time=02:17:53.36 bitrate=9579.3kbits/s speed=69.5x    frame=498447 fps=4169 q=-1.0 size= 9713664kB time=02:18:27.59 bitrate=9578.5kbits/s speed=69.5x    frame=500453 fps=4168 q=-1.0 size= 9754112kB time=02:19:01.03 bitrate=9579.8kbits/s speed=69.5x    frame=502354 fps=4166 q=-1.0 size= 9789952kB time=02:19:32.71 bitrate=9578.6kbits/s speed=69.4x    frame=504427 fps=4166 q=-1.0 size= 9829888kB time=02:20:07.27 bitrate=9578.2kbits/s speed=69.4x    frame=506544 fps=4166 q=-1.0 size= 9872128kB time=02:20:42.54 bitrate=9579.2kbits/s speed=69.4x    frame=508500 fps=4165 q=-1.0 size= 9908480kB time=02:21:15.16 bitrate=9577.4kbits/s speed=69.4x    frame=510642 fps=4166 q=-1.0 size= 9950464kB time=02:21:50.84 bitrate=9577.7kbits/s speed=69.4x    frame=512663 fps=4165 q=-1.0 size= 9990656kB time=02:22:24.53 bitrate=9578.5kbits/s speed=69.4x    frame=515459 fps=4171 q=-1.0 size=10027264kB time=02:23:11.13 bitrate=9561.4kbits/s speed=69.5x    frame=517626 fps=4172 q=-1.0 size=10065664kB time=02:23:47.24 bitrate=9557.8kbits/s speed=69.5x    frame=519670 fps=4171 q=-1.0 size=10105600kB time=02:24:21.31 bitrate=9558.0kbits/s speed=69.5x    frame=521925 fps=4173 q=-1.0 size=10146560kB time=02:24:58.89 bitrate=9555.3kbits/s speed=69.5x    frame=524351 fps=4175 q=-1.0 size=10187264kB time=02:25:39.33 bitrate=9549.3kbits/s speed=69.6x    frame=526861 fps=4179 q=-1.0 size=10228224kB time=02:26:21.16 bitrate=9542.0kbits/s speed=69.6x    frame=529174 fps=4181 q=-1.0 size=10269184kB time=02:26:59.71 bitrate=9538.3kbits/s speed=69.7x    frame=531309 fps=4181 q=-1.0 size=10308352kB time=02:27:35.30 bitrate=9536.2kbits/s speed=69.7x    frame=533641 fps=4183 q=-1.0 size=10350336kB time=02:28:14.16 bitrate=9533.2kbits/s speed=69.7x    frame=536676 fps=4190 q=-1.0 size=10390784kB time=02:29:04.74 bitrate=9516.3kbits/s speed=69.8x    frame=538963 fps=4192 q=-1.0 size=10433792kB time=02:29:42.87 bitrate=9515.2kbits/s speed=69.9x    frame=541945 fps=4199 q=-1.0 size=10475008kB time=02:30:32.56 bitrate=9500.2kbits/s speed=  70x    frame=544192 fps=4200 q=-1.0 size=10513664kB time=02:31:10.02 bitrate=9495.9kbits/s speed=  70x    frame=546667 fps=4203 q=-1.0 size=10551552kB time=02:31:51.26 bitrate=9487.0kbits/s speed=  70x    frame=548881 fps=4203 q=-1.0 size=10593280kB time=02:32:28.16 bitrate=9486.1kbits/s speed=70.1x    frame=550793 fps=4202 q=-1.0 size=10631424kB time=02:33:00.03 bitrate=9487.2kbits/s speed=  70x    frame=553884 fps=4209 q=-1.0 size=10673920kB time=02:33:51.55 bitrate=9471.9kbits/s speed=70.2x    frame=556205 fps=4211 q=-1.0 size=10714112kB time=02:34:30.23 bitrate=9467.9kbits/s speed=70.2x    frame=558923 fps=4216 q=-1.0 size=10756608kB time=02:35:15.54 bitrate=9459.3kbits/s speed=70.3x    frame=562947 fps=4230 q=-1.0 size=10797824kB time=02:36:22.59 bitrate=9427.6kbits/s speed=70.5x    frame=566478 fps=4241 q=-1.0 size=10838528kB time=02:37:21.44 bitrate=9404.2kbits/s speed=70.7x    frame=570262 fps=4253 q=-1.0 size=10876928kB time=02:38:24.51 bitrate=9374.9kbits/s speed=70.9x    frame=573440 fps=4261 q=-1.0 size=10920704kB time=02:39:17.48 bitrate=9360.5kbits/s speed=  71x    frame=576809 fps=4270 q=-1.0 size=10961408kB time=02:40:13.63 bitrate=9340.5kbits/s speed=71.2x    frame=580549 fps=4282 q=-1.0 size=11002880kB time=02:41:15.97 bitrate=9315.4kbits/s speed=71.4x    frame=582811 fps=4283 q=-1.0 size=11046144kB time=02:41:53.66 bitrate=9315.7kbits/s speed=71.4x    frame=584943 fps=4283 q=-1.0 size=11086080kB time=02:42:29.19 bitrate=9315.3kbits/s speed=71.4x    frame=587218 fps=4284 q=-1.0 size=11129856kB time=02:43:07.11 bitrate=9315.9kbits/s speed=71.4x    frame=589443 fps=4284 q=-1.0 size=11171840kB time=02:43:44.19 bitrate=9315.7kbits/s speed=71.4x    frame=591640 fps=4285 q=-1.0 size=11213312kB time=02:44:20.81 bitrate=9315.6kbits/s speed=71.4x    frame=593992 fps=4286 q=-1.0 size=11256832kB time=02:45:00.01 bitrate=9314.7kbits/s speed=71.4x    frame=596279 fps=4287 q=-1.0 size=11299840kB time=02:45:38.13 bitrate=9314.5kbits/s speed=71.5x    frame=598492 fps=4288 q=-1.0 size=11341568kB time=02:46:15.02 bitrate=9314.3kbits/s speed=71.5x    frame=600707 fps=4288 q=-1.0 size=11383808kB time=02:46:51.93 bitrate=9314.5kbits/s speed=71.5x    frame=603221 fps=4291 q=-1.0 size=11424768kB time=02:47:33.83 bitrate=9309.1kbits/s speed=71.5x    frame=606041 fps=4295 q=-1.0 size=11465984kB time=02:48:20.83 bitrate=9299.2kbits/s speed=71.6x    frame=608293 fps=4296 q=-1.0 size=11506432kB time=02:48:58.37 bitrate=9297.4kbits/s speed=71.6x    frame=610349 fps=4296 q=-1.0 size=11542272kB time=02:49:32.63 bitrate=9295.0kbits/s speed=71.6x    frame=612811 fps=4298 q=-1.0 size=11584256kB time=02:50:13.66 bitrate=9291.3kbits/s speed=71.6x    frame=615574 fps=4302 q=-1.0 size=11624448kB time=02:50:59.71 bitrate=9281.7kbits/s speed=71.7x    frame=619028 fps=4311 q=-1.0 size=11662080kB time=02:51:57.29 bitrate=9259.8kbits/s speed=71.9x    frame=621380 fps=4312 q=-1.0 size=11703808kB time=02:52:36.48 bitrate=9257.7kbits/s speed=71.9x    frame=623881 fps=4315 q=-1.0 size=11744256kB time=02:53:18.16 bitrate=9252.5kbits/s speed=71.9x    frame=627197 fps=4323 q=-1.0 size=11785728kB time=02:54:13.43 bitrate=9236.1kbits/s speed=  72x    frame=629367 fps=4323 q=-1.0 size=11828736kB time=02:54:49.60 bitrate=9237.8kbits/s speed=  72x    frame=631332 fps=4322 q=-1.0 size=11869440kB time=02:55:22.35 bitrate=9240.8kbits/s speed=  72x    frame=634495 fps=4328 q=-1.0 size=11911168kB time=02:56:15.06 bitrate=9227.0kbits/s speed=72.1x    frame=636664 fps=4328 q=-1.0 size=11951872kB time=02:56:51.21 bitrate=9227.0kbits/s speed=72.1x    frame=638870 fps=4329 q=-1.0 size=11992320kB time=02:57:27.98 bitrate=9226.3kbits/s speed=72.1x    frame=641082 fps=4329 q=-1.0 size=12033792kB time=02:58:04.84 bitrate=9226.2kbits/s speed=72.2x    frame=643603 fps=4331 q=-1.0 size=12072192kB time=02:58:46.87 bitrate=9219.4kbits/s speed=72.2x    frame=646355 fps=4335 q=-1.0 size=12112384kB time=02:59:32.73 bitrate=9210.7kbits/s speed=72.3x    frame=648801 fps=4337 q=-1.0 size=12152832kB time=03:00:13.49 bitrate=9206.6kbits/s speed=72.3x    frame=650969 fps=4337 q=-1.0 size=12191488kB time=03:00:49.63 bitrate=9205.2kbits/s speed=72.3x    frame=653314 fps=4338 q=-1.0 size=12233728kB time=03:01:28.71 bitrate=9203.9kbits/s speed=72.3x    frame=655799 fps=4340 q=-1.0 size=12275456kB time=03:02:10.13 bitrate=9200.3kbits/s speed=72.3x    frame=658394 fps=4343 q=-1.0 size=12313344kB time=03:02:53.38 bitrate=9192.3kbits/s speed=72.4x    frame=660748 fps=4344 q=-1.0 size=12356096kB time=03:03:32.61 bitrate=9191.4kbits/s speed=72.4x    frame=663107 fps=4346 q=-1.0 size=12396800kB time=03:04:11.93 bitrate=9188.9kbits/s speed=72.4x    frame=665481 fps=4347 q=-1.0 size=12439296kB time=03:04:51.49 bitrate=9187.5kbits/s speed=72.4x    frame=668013 fps=4349 q=-1.0 size=12481792kB time=03:05:33.69 bitrate=9183.9kbits/s speed=72.5x    frame=670283 fps=4350 q=-1.0 size=12523264kB time=03:06:11.53 bitrate=9183.2kbits/s speed=72.5x    frame=672805 fps=4352 q=-1.0 size=12565760kB time=03:06:53.57 bitrate=9179.8kbits/s speed=72.5x    frame=675250 fps=4354 q=-1.0 size=12608000kB time=03:07:34.31 bitrate=9177.3kbits/s speed=72.6x    frame=677810 fps=4356 q=-1.0 size=12647168kB time=03:08:16.98 bitrate=9171.1kbits/s speed=72.6x    frame=681002 fps=4363 q=-1.0 size=12689408kB time=03:09:10.19 bitrate=9158.6kbits/s speed=72.7x    frame=683272 fps=4363 q=-1.0 size=12730624kB time=03:09:48.01 bitrate=9157.8kbits/s speed=72.7x    frame=686508 fps=4370 q=-1.0 size=12769536kB time=03:10:41.94 bitrate=9142.5kbits/s speed=72.8x    frame=688735 fps=4370 q=-1.0 size=12810496kB time=03:11:19.06 bitrate=9142.2kbits/s speed=72.8x    frame=691227 fps=4372 q=-1.0 size=12849664kB time=03:12:00.60 bitrate=9137.1kbits/s speed=72.9x    frame=693571 fps=4373 q=-1.0 size=12890624kB time=03:12:39.66 bitrate=9135.2kbits/s speed=72.9x    frame=699917 fps=4399 q=-1.0 size=12930048kB time=03:14:25.43 bitrate=9080.1kbits/s speed=73.3x    frame=702097 fps=4399 q=-1.0 size=12967424kB time=03:15:01.76 bitrate=9078.0kbits/s speed=73.3x    frame=704321 fps=4399 q=-1.0 size=13009408kB time=03:15:38.84 bitrate=9078.7kbits/s speed=73.3x    frame=706915 fps=4402 q=-1.0 size=13050880kB time=03:16:22.06 bitrate=9074.2kbits/s speed=73.4x    frame=708877 fps=4400 q=-1.0 size=13087488kB time=03:16:54.76 bitrate=9074.5kbits/s speed=73.3x    frame=711274 fps=4401 q=-1.0 size=13131008kB time=03:17:34.72 bitrate=9074.0kbits/s speed=73.4x    frame=713446 fps=4401 q=-1.0 size=13172224kB time=03:18:10.91 bitrate=9074.7kbits/s speed=73.4x    frame=715593 fps=4401 q=-1.0 size=13212928kB time=03:18:46.70 bitrate=9075.5kbits/s speed=73.3x    frame=717866 fps=4401 q=-1.0 size=13256192kB time=03:19:24.58 bitrate=9076.4kbits/s speed=73.4x    frame=720334 fps=4403 q=-1.0 size=13292800kB time=03:20:05.72 bitrate=9070.2kbits/s speed=73.4x    frame=723182 fps=4407 q=-1.0 size=13333504kB time=03:20:53.18 bitrate=9062.2kbits/s speed=73.4x    frame=725437 fps=4407 q=-1.0 size=13376256kB time=03:21:30.77 bitrate=9063.0kbits/s speed=73.5x    frame=727480 fps=4406 q=-1.0 size=13414656kB time=03:22:04.81 bitrate=9063.5kbits/s speed=73.4x    frame=729601 fps=4406 q=-1.0 size=13457152kB time=03:22:40.16 bitrate=9065.7kbits/s speed=73.4x    frame=731690 fps=4405 q=-1.0 size=13497344kB time=03:23:14.99 bitrate=9066.9kbits/s speed=73.4x    frame=733875 fps=4405 q=-1.0 size=13536000kB time=03:23:51.40 bitrate=9065.8kbits/s speed=73.4x    frame=736050 fps=4405 q=-1.0 size=13577728kB time=03:24:27.64 bitrate=9066.8kbits/s speed=73.4x    frame=738222 fps=4405 q=-1.0 size=13616128kB time=03:25:03.84 bitrate=9065.7kbits/s speed=73.4x    frame=740329 fps=4404 q=-1.0 size=13657600kB time=03:25:38.96 bitrate=9067.5kbits/s speed=73.4x    frame=742836 fps=4406 q=-1.0 size=13702912kB time=03:26:20.74 bitrate=9066.8kbits/s speed=73.4x    frame=744809 fps=4404 q=-1.0 size=13740544kB time=03:26:53.63 bitrate=9067.7kbits/s speed=73.4x    frame=747067 fps=4405 q=-1.0 size=13781504kB time=03:27:31.26 bitrate=9067.2kbits/s speed=73.4x    frame=749320 fps=4405 q=-1.0 size=13822720kB time=03:28:08.81 bitrate=9067.0kbits/s speed=73.4x    frame=751432 fps=4404 q=-1.0 size=13861888kB time=03:28:44.01 bitrate=9067.1kbits/s speed=73.4x    frame=753989 fps=4407 q=-1.0 size=13904640kB time=03:29:26.63 bitrate=9064.2kbits/s speed=73.4x    frame=756056 fps=4406 q=-1.0 size=13945088kB time=03:30:01.09 bitrate=9065.7kbits/s speed=73.4x    frame=758311 fps=4406 q=-1.0 size=13985024kB time=03:30:38.66 bitrate=9064.7kbits/s speed=73.4x    frame=761317 fps=4411 q=-1.0 size=14027008kB time=03:31:28.77 bitrate=9056.0kbits/s speed=73.5x    frame=763386 fps=4410 q=-1.0 size=14065664kB time=03:32:03.24 bitrate=9056.3kbits/s speed=73.5x    frame=766305 fps=4414 q=-1.0 size=14109952kB time=03:32:51.90 bitrate=9050.2kbits/s speed=73.6x    frame=768807 fps=4416 q=-1.0 size=14152192kB time=03:33:33.59 bitrate=9047.8kbits/s speed=73.6x    frame=771018 fps=4416 q=-1.0 size=14190336kB time=03:34:10.45 bitrate=9046.2kbits/s speed=73.6x    frame=773409 fps=4417 q=-1.0 size=14232320kB time=03:34:50.29 bitrate=9044.9kbits/s speed=73.6x    frame=775925 fps=4418 q=-1.0 size=14274816kB time=03:35:32.23 bitrate=9042.5kbits/s speed=73.6x    frame=778354 fps=4420 q=-1.0 size=14319616kB time=03:36:12.71 bitrate=9042.5kbits/s speed=73.7x    frame=782601 fps=4431 q=-1.0 size=14363136kB time=03:37:23.49 bitrate=9020.8kbits/s speed=73.9x    frame=785041 fps=4432 q=-1.0 size=14407168kB time=03:38:04.16 bitrate=9020.3kbits/s speed=73.9x    frame=787451 fps=4434 q=-1.0 size=14452480kB time=03:38:44.33 bitrate=9021.0kbits/s speed=73.9x    frame=791156 fps=4442 q=-1.0 size=14495488kB time=03:39:46.09 bitrate=9005.5kbits/s speed=  74x    frame=794138 fps=4446 q=-1.0 size=14539776kB time=03:40:35.78 bitrate=8999.1kbits/s speed=74.1x    frame=797013 fps=4450 q=-1.0 size=14585344kB time=03:41:23.69 bitrate=8994.7kbits/s speed=74.2x    frame=799672 fps=4452 q=-1.0 size=14627840kB time=03:42:08.02 bitrate=8990.9kbits/s speed=74.2x    frame=801605 fps=4451 q=-1.0 size=14665216kB time=03:42:40.23 bitrate=8992.2kbits/s speed=74.2x    frame=804790 fps=4456 q=-1.0 size=14708480kB time=03:43:33.31 bitrate=8983.0kbits/s speed=74.3x    frame=807251 fps=4457 q=-1.0 size=14749696kB time=03:44:14.34 bitrate=8980.7kbits/s speed=74.3x    frame=809672 fps=4458 q=-1.0 size=14789888kB time=03:44:54.68 bitrate=8978.3kbits/s speed=74.3x    frame=812361 fps=4461 q=-1.0 size=14832640kB time=03:45:39.50 bitrate=8974.4kbits/s speed=74.3x    frame=814869 fps=4462 q=-1.0 size=14874368kB time=03:46:21.29 bitrate=8972.0kbits/s speed=74.4x    frame=817471 fps=4464 q=-1.0 size=14916608kB time=03:47:04.66 bitrate=8968.8kbits/s speed=74.4x    frame=820645 fps=4469 q=-1.0 size=14957568kB time=03:47:57.56 bitrate=8958.6kbits/s speed=74.5x    frame=823075 fps=4470 q=-1.0 size=14999040kB time=03:48:38.06 bitrate=8957.0kbits/s speed=74.5x    frame=825900 fps=4474 q=-1.0 size=15041792kB time=03:49:25.14 bitrate=8951.8kbits/s speed=74.6x    frame=828139 fps=4474 q=-1.0 size=15083008kB time=03:50:02.46 bitrate=8952.0kbits/s speed=74.6x    frame=830636 fps=4475 q=-1.0 size=15123712kB time=03:50:44.08 bitrate=8949.2kbits/s speed=74.6x    frame=833906 fps=4481 q=-1.0 size=15166976kB time=03:51:38.58 bitrate=8939.6kbits/s speed=74.7x    frame=836330 fps=4481 q=-1.0 size=15209472kB time=03:52:18.98 bitrate=8938.7kbits/s speed=74.7x    frame=838986 fps=4484 q=-1.0 size=15254016kB time=03:53:03.24 bitrate=8936.5kbits/s speed=74.7x    frame=842090 fps=4488 q=-1.0 size=15298304kB time=03:53:54.98 bitrate=8929.4kbits/s speed=74.8x    frame=844100 fps=4487 q=-1.0 size=15337472kB time=03:54:28.48 bitrate=8930.9kbits/s speed=74.8x    frame=846468 fps=4488 q=-1.0 size=15382272kB time=03:55:07.94 bitrate=8932.0kbits/s speed=74.8x    frame=848858 fps=4488 q=-1.0 size=15426560kB time=03:55:47.78 bitrate=8932.5kbits/s speed=74.8x    frame=850883 fps=4487 q=-1.0 size=15464448kB time=03:56:21.53 bitrate=8933.1kbits/s speed=74.8x    frame=852820 fps=4486 q=-1.0 size=15502080kB time=03:56:53.81 bitrate=8934.5kbits/s speed=74.8x    frame=854976 fps=4485 q=-1.0 size=15541504kB time=03:57:29.74 bitrate=8934.6kbits/s speed=74.8x    frame=857289 fps=4486 q=-1.0 size=15585280kB time=03:58:08.30 bitrate=8935.6kbits/s speed=74.8x    frame=859907 fps=4488 q=-1.0 size=15629056kB time=03:58:51.93 bitrate=8933.4kbits/s speed=74.8x    frame=862761 fps=4491 q=-1.0 size=15667712kB time=03:59:39.50 bitrate=8925.9kbits/s speed=74.8x    frame=866166 fps=4497 q=-1.0 size=15711232kB time=04:00:36.24 bitrate=8915.5kbits/s speed=74.9x    frame=869480 fps=4502 q=-1.0 size=15755264kB time=04:01:31.48 bitrate=8906.4kbits/s speed=  75x    frame=871907 fps=4503 q=-1.0 size=15794944kB time=04:02:11.93 bitrate=8904.0kbits/s speed=75.1x    frame=874005 fps=4502 q=-1.0 size=15838720kB time=04:02:46.89 bitrate=8907.2kbits/s speed=  75x    frame=876238 fps=4502 q=-1.0 size=15884032kB time=04:03:24.11 bitrate=8910.0kbits/s speed=  75x    frame=878325 fps=4501 q=-1.0 size=15923712kB time=04:03:58.89 bitrate=8911.0kbits/s speed=  75x    frame=880480 fps=4501 q=-1.0 size=15967488kB time=04:04:34.81 bitrate=8913.6kbits/s speed=  75x    frame=882621 fps=4500 q=-1.0 size=16009472kB time=04:05:10.49 bitrate=8915.4kbits/s speed=  75x    frame=885700 fps=4504 q=-1.0 size=16052736kB time=04:06:01.81 bitrate=8908.4kbits/s speed=75.1x    frame=888201 fps=4506 q=-1.0 size=16096512kB time=04:06:43.49 bitrate=8907.5kbits/s speed=75.1x    frame=891821 fps=4513 q=-1.0 size=16135936kB time=04:07:43.83 bitrate=8893.1kbits/s speed=75.2x    frame=894775 fps=4516 q=-1.0 size=16176640kB time=04:08:33.07 bitrate=8886.1kbits/s speed=75.3x    frame=897224 fps=4517 q=-1.0 size=16217856kB time=04:09:13.88 bitrate=8884.4kbits/s speed=75.3x    frame=900068 fps=4520 q=-1.0 size=16255488kB time=04:10:01.28 bitrate=8876.9kbits/s speed=75.3x    frame=903268 fps=4525 q=-1.0 size=16296192kB time=04:10:54.61 bitrate=8867.6kbits/s speed=75.4x    frame=905596 fps=4525 q=-1.0 size=16339200kB time=04:11:33.42 bitrate=8868.1kbits/s speed=75.4x    frame=908731 fps=4529 q=-1.0 size=16378624kB time=04:12:25.66 bitrate=8858.9kbits/s speed=75.5x    frame=911119 fps=4530 q=-1.0 size=16421632kB time=04:13:05.46 bitrate=8858.9kbits/s speed=75.5x    frame=913387 fps=4530 q=-1.0 size=16462592kB time=04:13:43.27 bitrate=8858.9kbits/s speed=75.5x    frame=915507 fps=4529 q=-1.0 size=16502784kB time=04:14:18.59 bitrate=8860.0kbits/s speed=75.5x    frame=917834 fps=4530 q=-1.0 size=16545280kB time=04:14:57.38 bitrate=8860.3kbits/s speed=75.5x    frame=920347 fps=4531 q=-1.0 size=16584960kB time=04:15:39.26 bitrate=8857.3kbits/s speed=75.5x    frame=922230 fps=4529 q=-1.0 size=16620800kB time=04:16:10.64 bitrate=8858.3kbits/s speed=75.5x    frame=925396 fps=4533 q=-1.0 size=16662016kB time=04:17:03.41 bitrate=8849.9kbits/s speed=75.6x    frame=927709 fps=4534 q=-1.0 size=16703232kB time=04:17:41.97 bitrate=8849.6kbits/s speed=75.6x    frame=930123 fps=4534 q=-1.0 size=16743424kB time=04:18:22.19 bitrate=8847.9kbits/s speed=75.6x    frame=932952 fps=4537 q=-1.0 size=16783872kB time=04:19:09.35 bitrate=8842.4kbits/s speed=75.6x    frame=936594 fps=4544 q=-1.0 size=16824576kB time=04:20:10.05 bitrate=8829.4kbits/s speed=75.7x    frame=940275 fps=4550 q=-1.0 size=16864000kB time=04:21:11.39 bitrate=8815.4kbits/s speed=75.8x    frame=943182 fps=4553 q=-1.0 size=16905216kB time=04:21:59.84 bitrate=8809.7kbits/s speed=75.9x    frame=945133 fps=4552 q=-1.0 size=16944640kB time=04:22:32.36 bitrate=8812.0kbits/s speed=75.9x    frame=947465 fps=4552 q=-1.0 size=16983552kB time=04:23:11.23 bitrate=8810.5kbits/s speed=75.9x    frame=950395 fps=4555 q=-1.0 size=17025536kB time=04:24:00.06 bitrate=8805.1kbits/s speed=75.9x    frame=952251 fps=4553 q=-1.0 size=17061888kB time=04:24:31.00 bitrate=8806.7kbits/s speed=75.9x    frame=954353 fps=4552 q=-1.0 size=17102592kB time=04:25:06.03 bitrate=8808.3kbits/s speed=75.9x    frame=956456 fps=4552 q=-1.0 size=17144832kB time=04:25:41.08 bitrate=8810.6kbits/s speed=75.9x    frame=958649 fps=4551 q=-1.0 size=17186816kB time=04:26:17.63 bitrate=8812.0kbits/s speed=75.9x    frame=961606 fps=4554 q=-1.0 size=17227520kB time=04:27:06.91 bitrate=8805.7kbits/s speed=75.9x    frame=964248 fps=4556 q=-1.0 size=17268992kB time=04:27:50.94 bitrate=8802.7kbits/s speed=75.9x    frame=966592 fps=4556 q=-1.0 size=17307648kB time=04:28:30.01 bitrate=8801.0kbits/s speed=75.9x    frame=968979 fps=4557 q=-1.0 size=17350400kB time=04:29:09.80 bitrate=8801.0kbits/s speed=75.9x    frame=971272 fps=4557 q=-1.0 size=17388544kB time=04:29:48.01 bitrate=8799.5kbits/s speed=  76x    frame=974423 fps=4561 q=-1.0 size=17428736kB time=04:30:40.53 bitrate=8791.3kbits/s speed=  76x    frame=977056 fps=4563 q=-1.0 size=17470976kB time=04:31:24.42 bitrate=8788.9kbits/s speed=  76x    frame=979049 fps=4561 q=-1.0 size=17508352kB time=04:31:57.63 bitrate=8789.8kbits/s speed=  76x    frame=981420 fps=4562 q=-1.0 size=17550336kB time=04:32:37.14 bitrate=8789.6kbits/s speed=  76x    frame=983846 fps=4562 q=-1.0 size=17592576kB time=04:33:17.58 bitrate=8789.0kbits/s speed=  76x    frame=986584 fps=4565 q=-1.0 size=17628416kB time=04:34:03.22 bitrate=8782.5kbits/s speed=76.1x    frame=989331 fps=4567 q=-1.0 size=17670656kB time=04:34:49.00 bitrate=8779.1kbits/s speed=76.1x    frame=991809 fps=4568 q=-1.0 size=17710080kB time=04:35:30.29 bitrate=8776.7kbits/s speed=76.1x    frame=994651 fps=4570 q=-1.0 size=17750528kB time=04:36:17.66 bitrate=8771.6kbits/s speed=76.2x    frame=996897 fps=4570 q=-1.0 size=17780992kB time=04:36:55.10 bitrate=8766.8kbits/s speed=76.2x    frame=1000343 fps=4575 q=-1.0 size=17819136kB time=04:37:52.53 bitrate=8755.4kbits/s speed=76.3x    frame=1004097 fps=4582 q=-1.0 size=17858816kB time=04:38:55.09 bitrate=8742.1kbits/s speed=76.4x    frame=1007345 fps=4586 q=-1.0 size=17896704kB time=04:39:49.23 bitrate=8732.4kbits/s speed=76.4x    frame=1010397 fps=4590 q=-1.0 size=17935616kB time=04:40:40.11 bitrate=8724.9kbits/s speed=76.5x    frame=1013881 fps=4595 q=-1.0 size=17976064kB time=04:41:38.16 bitrate=8714.6kbits/s speed=76.6x    frame=1017617 fps=4602 q=-1.0 size=18014464kB time=04:42:40.43 bitrate=8701.1kbits/s speed=76.7x    frame=1020188 fps=4603 q=-1.0 size=18055936kB time=04:43:23.28 bitrate=8699.2kbits/s speed=76.7x    frame=1022217 fps=4602 q=-1.0 size=18098176kB time=04:43:57.09 bitrate=8702.2kbits/s speed=76.7x    frame=1024827 fps=4603 q=-1.0 size=18135552kB time=04:44:40.60 bitrate=8698.0kbits/s speed=76.7x    frame=1027275 fps=4604 q=-1.0 size=18175744kB time=04:45:21.41 bitrate=8696.5kbits/s speed=76.7x    frame=1029809 fps=4605 q=-1.0 size=18217728kB time=04:46:03.63 bitrate=8695.1kbits/s speed=76.7x    frame=1031670 fps=4603 q=-1.0 size=18253824kB time=04:46:34.64 bitrate=8696.6kbits/s speed=76.7x    frame=1035173 fps=4608 q=-1.0 size=18295808kB time=04:47:33.03 bitrate=8687.1kbits/s speed=76.8x    frame=1037808 fps=4609 q=-1.0 size=18337024kB time=04:48:16.94 bitrate=8684.6kbits/s speed=76.8x    frame=1040759 fps=4612 q=-1.0 size=18378240kB time=04:49:06.13 bitrate=8679.4kbits/s speed=76.9x    frame=1043526 fps=4614 q=-1.0 size=18420224kB time=04:49:52.24 bitrate=8676.2kbits/s speed=76.9x    frame=1045675 fps=4614 q=-1.0 size=18461952kB time=04:50:28.07 bitrate=8678.0kbits/s speed=76.9x    frame=1049079 fps=4618 q=-1.0 size=18504192kB time=04:51:24.80 bitrate=8669.6kbits/s speed=  77x    frame=1052046 fps=4621 q=-1.0 size=18546944kB time=04:52:14.25 bitrate=8665.1kbits/s speed=  77x    frame=1054098 fps=4620 q=-1.0 size=18584832kB time=04:52:48.44 bitrate=8665.9kbits/s speed=  77x    frame=1057224 fps=4624 q=-1.0 size=18628096kB time=04:53:40.54 bitrate=8660.4kbits/s speed=77.1x    frame=1059199 fps=4622 q=-1.0 size=18669312kB time=04:54:13.46 bitrate=8663.4kbits/s speed=  77x    frame=1061158 fps=4621 q=-1.0 size=18707968kB time=04:54:46.12 bitrate=8665.3kbits/s speed=  77x    frame=1063276 fps=4620 q=-1.0 size=18750208kB time=04:55:21.41 bitrate=8667.6kbits/s speed=  77x    frame=1065300 fps=4619 q=-1.0 size=18791168kB time=04:55:55.16 bitrate=8670.0kbits/s speed=  77x    frame=1067341 fps=4618 q=-1.0 size=18831872kB time=04:56:29.16 bitrate=8672.2kbits/s speed=  77x    frame=1069692 fps=4618 q=-1.0 size=18875648kB time=04:57:08.35 bitrate=8673.2kbits/s speed=  77x    frame=1071494 fps=4616 q=-1.0 size=18913024kB time=04:57:38.39 bitrate=8675.8kbits/s speed=76.9x    frame=1073608 fps=4615 q=-1.0 size=18955008kB time=04:58:13.61 bitrate=8677.9kbits/s speed=76.9x    frame=1075841 fps=4614 q=-1.0 size=18998528kB time=04:58:50.84 bitrate=8679.8kbits/s speed=76.9x    frame=1077600 fps=4612 q=-1.0 size=19035136kB time=04:59:20.15 bitrate=8682.3kbits/s speed=76.9x    frame=1079479 fps=4610 q=-1.0 size=19073536kB time=04:59:51.47 bitrate=8684.7kbits/s speed=76.8x    frame=1081609 fps=4609 q=-1.0 size=19116032kB time=05:00:26.96 bitrate=8686.9kbits/s speed=76.8x    frame=1083646 fps=4608 q=-1.0 size=19155200kB time=05:01:00.91 bitrate=8688.3kbits/s speed=76.8x    frame=1085759 fps=4607 q=-1.0 size=19199232kB time=05:01:36.13 bitrate=8691.4kbits/s speed=76.8x    frame=1088278 fps=4608 q=-1.0 size=19237888kB time=05:02:18.11 bitrate=8688.7kbits/s speed=76.8x    frame=1092357 fps=4616 q=-1.0 size=19280640kB time=05:03:26.10 bitrate=8675.5kbits/s speed=76.9x    frame=1095043 fps=4617 q=-1.0 size=19324928kB time=05:04:10.86 bitrate=8674.1kbits/s speed=  77x    frame=1096991 fps=4616 q=-1.0 size=19365632kB time=05:04:43.33 bitrate=8676.9kbits/s speed=76.9x    frame=1099074 fps=4615 q=-1.0 size=19408896kB time=05:05:18.04 bitrate=8679.8kbits/s speed=76.9x    frame=1101297 fps=4615 q=-1.0 size=19452672kB time=05:05:55.09 bitrate=8681.9kbits/s speed=76.9x    frame=1103030 fps=4612 q=-1.0 size=19489024kB time=05:06:23.98 bitrate=8684.4kbits/s speed=76.9x    frame=1107498 fps=4621 q=-1.0 size=19529728kB time=05:07:38.44 bitrate=8667.4kbits/s speed=  77x    frame=1109545 fps=4620 q=-1.0 size=19570432kB time=05:08:12.56 bitrate=8669.5kbits/s speed=  77x    frame=1112196 fps=4622 q=-1.0 size=19609600kB time=05:08:56.75 bitrate=8666.1kbits/s speed=  77x    frame=1115435 fps=4625 q=-1.0 size=19653632kB time=05:09:50.73 bitrate=8660.4kbits/s speed=77.1x    frame=1118138 fps=4627 q=-1.0 size=19693568kB time=05:10:35.78 bitrate=8657.0kbits/s speed=77.1x    frame=1120652 fps=4628 q=-1.0 size=19738880kB time=05:11:17.68 bitrate=8657.4kbits/s speed=77.1x    frame=1123419 fps=4630 q=-1.0 size=19782912kB time=05:12:03.79 bitrate=8655.4kbits/s speed=77.2x    frame=1125730 fps=4630 q=-1.0 size=19821824kB time=05:12:42.31 bitrate=8654.6kbits/s speed=77.2x    frame=1128099 fps=4630 q=-1.0 size=19866624kB time=05:13:21.79 bitrate=8655.9kbits/s speed=77.2x    frame=1130615 fps=4631 q=-1.0 size=19910400kB time=05:14:03.73 bitrate=8655.7kbits/s speed=77.2x    frame=1134703 fps=4638 q=-1.0 size=19952640kB time=05:15:11.87 bitrate=8642.8kbits/s speed=77.3x    frame=1137055 fps=4638 q=-1.0 size=19997184kB time=05:15:51.06 bitrate=8644.2kbits/s speed=77.3x    frame=1139377 fps=4638 q=-1.0 size=20040704kB time=05:16:29.76 bitrate=8645.4kbits/s speed=77.3x    frame=1141623 fps=4638 q=-1.0 size=20083712kB time=05:17:07.19 bitrate=8646.9kbits/s speed=77.3x    frame=1143691 fps=4637 q=-1.0 size=20125952kB time=05:17:41.67 bitrate=8649.4kbits/s speed=77.3x    frame=1147128 fps=4641 q=-1.0 size=20166656kB time=05:18:38.94 bitrate=8640.9kbits/s speed=77.4x    frame=1149899 fps=4643 q=-1.0 size=20209152kB time=05:19:25.13 bitrate=8638.3kbits/s speed=77.4x    frame=1152409 fps=4644 q=-1.0 size=20251136kB time=05:20:06.96 bitrate=8637.4kbits/s speed=77.4x    frame=1155108 fps=4645 q=-1.0 size=20293120kB time=05:20:51.94 bitrate=8635.0kbits/s speed=77.4x    frame=1157729 fps=4647 q=-1.0 size=20334080kB time=05:21:35.64 bitrate=8632.9kbits/s speed=77.4x    frame=1160621 fps=4649 q=-1.0 size=20372736kB time=05:22:23.83 bitrate=8627.7kbits/s speed=77.5x    frame=1163121 fps=4649 q=-1.0 size=20409856kB time=05:23:05.49 bitrate=8624.9kbits/s speed=77.5x    frame=1165555 fps=4650 q=-1.0 size=20448512kB time=05:23:46.07 bitrate=8623.2kbits/s speed=77.5x    frame=1168661 fps=4653 q=-1.0 size=20487168kB time=05:24:37.83 bitrate=8616.5kbits/s speed=77.6x    frame=1171070 fps=4653 q=-1.0 size=20529664kB time=05:25:17.98 bitrate=8616.6kbits/s speed=77.6x    frame=1173265 fps=4653 q=-1.0 size=20566272kB time=05:25:54.56 bitrate=8615.8kbits/s speed=77.5x    frame=1175831 fps=4654 q=-1.0 size=20609792kB time=05:26:37.33 bitrate=8615.2kbits/s speed=77.6x    frame=1178323 fps=4654 q=-1.0 size=20652288kB time=05:27:18.87 bitrate=8614.7kbits/s speed=77.6x    frame=1180596 fps=4654 q=-1.0 size=20694528kB time=05:27:56.76 bitrate=8615.7kbits/s speed=77.6x    frame=1183166 fps=4655 q=-1.0 size=20737792kB time=05:28:39.58 bitrate=8615.0kbits/s speed=77.6x    frame=1185481 fps=4655 q=-1.0 size=20779520kB time=05:29:18.16 bitrate=8615.5kbits/s speed=77.6x    frame=1188275 fps=4657 q=-1.0 size=20820224kB time=05:30:04.74 bitrate=8612.0kbits/s speed=77.6x    frame=1190635 fps=4657 q=-1.0 size=20861184kB time=05:30:44.06 bitrate=8611.9kbits/s speed=77.6x    frame=1193111 fps=4658 q=-1.0 size=20904704kB time=05:31:25.33 bitrate=8611.9kbits/s speed=77.6x    frame=1195379 fps=4657 q=-1.0 size=20945920kB time=05:32:03.14 bitrate=8612.5kbits/s speed=77.6x    frame=1197618 fps=4657 q=-1.0 size=20986624kB time=05:32:40.44 bitrate=8613.2kbits/s speed=77.6x    frame=1200085 fps=4657 q=-1.0 size=21031424kB time=05:33:21.56 bitrate=8613.8kbits/s speed=77.6x    frame=1202383 fps=4657 q=-1.0 size=21070848kB time=05:33:59.87 bitrate=8613.4kbits/s speed=77.6x    frame=1204966 fps=4658 q=-1.0 size=21115904kB time=05:34:42.92 bitrate=8613.4kbits/s speed=77.6x    frame=1207373 fps=4659 q=-1.0 size=21160192kB time=05:35:23.03 bitrate=8614.2kbits/s speed=77.6x    frame=1209523 fps=4658 q=-1.0 size=21197568kB time=05:35:58.87 bitrate=8614.1kbits/s speed=77.6x    frame=1212010 fps=4659 q=-1.0 size=21241344kB time=05:36:40.32 bitrate=8614.2kbits/s speed=77.6x    frame=1214390 fps=4659 q=-1.0 size=21284096kB time=05:37:19.98 bitrate=8614.6kbits/s speed=77.6x    frame=1217147 fps=4660 q=-1.0 size=21328128kB time=05:38:05.93 bitrate=8612.9kbits/s speed=77.7x    frame=1219510 fps=4660 q=-1.0 size=21371136kB time=05:38:45.31 bitrate=8613.5kbits/s speed=77.7x    frame=1221788 fps=4660 q=-1.0 size=21410560kB time=05:39:23.28 bitrate=8613.3kbits/s speed=77.7x    frame=1224334 fps=4661 q=-1.0 size=21453568kB time=05:40:05.72 bitrate=8612.7kbits/s speed=77.7x    frame=1226843 fps=4662 q=-1.0 size=21497344kB time=05:40:47.53 bitrate=8612.6kbits/s speed=77.7x    frame=1228843 fps=4661 q=-1.0 size=21534976kB time=05:41:20.86 bitrate=8613.6kbits/s speed=77.7x    frame=1230934 fps=4660 q=-1.0 size=21576192kB time=05:41:55.71 bitrate=8615.5kbits/s speed=77.7x    frame=1233609 fps=4661 q=-1.0 size=21619968kB time=05:42:40.30 bitrate=8614.2kbits/s speed=77.7x    frame=1235615 fps=4660 q=-1.0 size=21657344kB time=05:43:13.73 bitrate=8615.1kbits/s speed=77.7x    frame=1237976 fps=4660 q=-1.0 size=21701120kB time=05:43:53.08 bitrate=8616.0kbits/s speed=77.7x    frame=1240326 fps=4660 q=-1.0 size=21743104kB time=05:44:32.24 bitrate=8616.4kbits/s speed=77.7x    frame=1242781 fps=4660 q=-1.0 size=21784832kB time=05:45:13.16 bitrate=8615.8kbits/s speed=77.7x    frame=1245425 fps=4661 q=-1.0 size=21828608kB time=05:45:57.23 bitrate=8614.8kbits/s speed=77.7x    frame=1247867 fps=4662 q=-1.0 size=21871872kB time=05:46:37.93 bitrate=8615.0kbits/s speed=77.7x    frame=1250255 fps=4662 q=-1.0 size=21915904kB time=05:47:17.73 bitrate=8615.9kbits/s speed=77.7x    frame=1252814 fps=4663 q=-1.0 size=21961216kB time=05:48:00.38 bitrate=8616.0kbits/s speed=77.7x    frame=1255297 fps=4664 q=-1.0 size=22004224kB time=05:48:41.76 bitrate=8615.8kbits/s speed=77.7x    frame=1257769 fps=4664 q=-1.0 size=22048000kB time=05:49:22.96 bitrate=8616.0kbits/s speed=77.7x    frame=1259939 fps=4663 q=-1.0 size=22090496kB time=05:49:59.13 bitrate=8617.8kbits/s speed=77.7x    frame=1262301 fps=4664 q=-1.0 size=22131200kB time=05:50:38.51 bitrate=8617.5kbits/s speed=77.7x    frame=1264699 fps=4664 q=-1.0 size=22174464kB time=05:51:18.46 bitrate=8618.0kbits/s speed=77.7x    frame=1266952 fps=4663 q=-1.0 size=22216704kB time=05:51:56.01 bitrate=8619.0kbits/s speed=77.7x    frame=1269295 fps=4664 q=-1.0 size=22259712kB time=05:52:35.07 bitrate=8619.8kbits/s speed=77.7x    frame=1271840 fps=4664 q=-1.0 size=22305024kB time=05:53:17.48 bitrate=8620.0kbits/s speed=77.7x    frame=1273999 fps=4664 q=-1.0 size=22342144kB time=05:53:53.47 bitrate=8619.7kbits/s speed=77.7x    frame=1276328 fps=4664 q=-1.0 size=22384896kB time=05:54:32.28 bitrate=8620.5kbits/s speed=77.7x    frame=1278771 fps=4664 q=-1.0 size=22428672kB time=05:55:13.00 bitrate=8620.8kbits/s speed=77.7x    frame=1280828 fps=4663 q=-1.0 size=22466816kB time=05:55:47.28 bitrate=8621.6kbits/s speed=77.7x    frame=1283115 fps=4663 q=-1.0 size=22510080kB time=05:56:25.41 bitrate=8622.8kbits/s speed=77.7x    frame=1285386 fps=4663 q=-1.0 size=22552832kB time=05:57:03.25 bitrate=8623.9kbits/s speed=77.7x    frame=1287672 fps=4662 q=-1.0 size=22592512kB time=05:57:41.35 bitrate=8623.8kbits/s speed=77.7x    frame=1289961 fps=4662 q=-1.0 size=22632960kB time=05:58:19.50 bitrate=8623.9kbits/s speed=77.7x    frame=1291968 fps=4661 q=-1.0 size=22672896kB time=05:58:52.94 bitrate=8625.7kbits/s speed=77.7x    frame=1294226 fps=4661 q=-1.0 size=22716160kB time=05:59:30.58 bitrate=8627.1kbits/s speed=77.7x    frame=1296516 fps=4661 q=-1.0 size=22759424kB time=06:00:08.75 bitrate=8628.2kbits/s speed=77.7x    frame=1298833 fps=4661 q=-1.0 size=22799104kB time=06:00:47.36 bitrate=8627.9kbits/s speed=77.7x    frame=1301303 fps=4661 q=-1.0 size=22842368kB time=06:01:28.53 bitrate=8627.8kbits/s speed=77.7x    frame=1303483 fps=4661 q=-1.0 size=22885120kB time=06:02:04.86 bitrate=8629.5kbits/s speed=77.7x    frame=1306569 fps=4663 q=-1.0 size=22923520kB time=06:02:56.29 bitrate=8623.6kbits/s speed=77.7x    frame=1312052 fps=4675 q=-1.0 size=22963712kB time=06:04:27.69 bitrate=8602.6kbits/s speed=77.9x    frame=1314260 fps=4674 q=-1.0 size=23004928kB time=06:05:04.48 bitrate=8603.6kbits/s speed=77.9x    frame=1316594 fps=4674 q=-1.0 size=23049472kB time=06:05:43.38 bitrate=8604.9kbits/s speed=77.9x    frame=1320891 fps=4681 q=-1.0 size=23092224kB time=06:06:54.99 bitrate=8592.8kbits/s speed=  78x    frame=1322908 fps=4680 q=-1.0 size=23134208kB time=06:07:28.61 bitrate=8595.3kbits/s speed=  78x    frame=1325070 fps=4679 q=-1.0 size=23179264kB time=06:08:04.65 bitrate=8598.0kbits/s speed=  78x    frame=1327188 fps=4678 q=-1.0 size=23223296kB time=06:08:39.94 bitrate=8600.6kbits/s speed=  78x    frame=1329121 fps=4677 q=-1.0 size=23263488kB time=06:09:12.17 bitrate=8603.0kbits/s speed=  78x    frame=1331197 fps=4676 q=-1.0 size=23306752kB time=06:09:46.76 bitrate=8605.5kbits/s speed=77.9x    frame=1333208 fps=4675 q=-1.0 size=23348480kB time=06:10:20.29 bitrate=8607.9kbits/s speed=77.9x    frame=1335100 fps=4673 q=-1.0 size=23387904kB time=06:10:51.82 bitrate=8610.2kbits/s speed=77.9x    frame=1337082 fps=4672 q=-1.0 size=23429120kB time=06:11:24.84 bitrate=8612.6kbits/s speed=77.9x    frame=1339149 fps=4671 q=-1.0 size=23471872kB time=06:11:59.29 bitrate=8615.0kbits/s speed=77.9x    frame=1341151 fps=4670 q=-1.0 size=23513600kB time=06:12:32.66 bitrate=8617.5kbits/s speed=77.8x    frame=1343227 fps=4669 q=-1.0 size=23557120kB time=06:13:07.26 bitrate=8620.1kbits/s speed=77.8x    frame=1345133 fps=4668 q=-1.0 size=23596544kB time=06:13:39.03 bitrate=8622.3kbits/s speed=77.8x    frame=1347135 fps=4666 q=-1.0 size=23638016kB time=06:14:12.39 bitrate=8624.6kbits/s speed=77.8x    frame=1349134 fps=4665 q=-1.0 size=23679744kB time=06:14:45.71 bitrate=8627.0kbits/s speed=77.8x    frame=1351060 fps=4664 q=-1.0 size=23720192kB time=06:15:17.81 bitrate=8629.4kbits/s speed=77.7x    frame=1352909 fps=4662 q=-1.0 size=23758080kB time=06:15:48.63 bitrate=8631.4kbits/s speed=77.7x    frame=1354987 fps=4661 q=-1.0 size=23801600kB time=06:16:23.26 bitrate=8633.9kbits/s speed=77.7x    frame=1357055 fps=4660 q=-1.0 size=23843072kB time=06:16:57.73 bitrate=8635.8kbits/s speed=77.7x    frame=1361213 fps=4667 q=-1.0 Lsize=23881366kB time=06:18:07.04 bitrate=8623.3kbits/s speed=77.8x    
video:23290653kB audio:545137kB subtitle:0kB other streams:0kB global headers:0kB muxing overhead: 0.191210%
